<svg width="24" height="24" viewBox="0 0 24 24" fill="none" xmlns="http://www.w3.org/2000/svg">
<mask id="path-1-inside-1_708_4302" fill="white">
<path fill-rule="evenodd" clip-rule="evenodd" d="M2 5C2 3.34315 3.34315 2 5 2H8C9.65685 2 11 3.34315 11 5V8C11 9.65685 9.65685 11 8 11H5C3.34315 11 2 9.65685 2 8V5Z"/>
<path fill-rule="evenodd" clip-rule="evenodd" d="M13 5C13 3.34315 14.3431 2 16 2H19C20.6569 2 22 3.34315 22 5V8C22 9.65685 20.6569 11 19 11H16C14.3431 11 13 9.65685 13 8V5Z"/>
<path d="M16.618 13.6023C16.8649 12.7992 18.1351 12.7992 18.382 13.6023L18.5328 14.0929C18.9349 15.4007 20.0426 16.4402 21.4816 16.86C22.1728 17.0616 22.1728 17.9384 21.4816 18.14C20.0426 18.5598 18.9349 19.5993 18.5328 20.9071L18.382 21.3977C18.1351 22.2008 16.8649 22.2008 16.618 21.3977L16.4672 20.9071C16.0651 19.5993 14.9574 18.5598 13.5184 18.14C12.8272 17.9384 12.8272 17.0616 13.5184 16.86C14.9574 16.4402 16.0651 15.4007 16.4672 14.0929L16.618 13.6023Z"/>
<path fill-rule="evenodd" clip-rule="evenodd" d="M2 16C2 14.3431 3.34315 13 5 13H8C9.65685 13 11 14.3431 11 16V19C11 20.6569 9.65685 22 8 22H5C3.34315 22 2 20.6569 2 19V16Z"/>
</mask>
<path d="M18.382 13.6023L16.4703 14.19L16.4703 14.19L18.382 13.6023ZM16.618 13.6023L18.5297 14.19V14.19L16.618 13.6023ZM18.5328 14.0929L20.4445 13.5051V13.5051L18.5328 14.0929ZM21.4816 16.86L20.9214 18.7799L20.9214 18.7799L21.4816 16.86ZM21.4816 18.14L22.0417 20.06H22.0417L21.4816 18.14ZM18.5328 20.9071L20.4445 21.4949V21.4949L18.5328 20.9071ZM18.382 21.3977L16.4703 20.81H16.4703L18.382 21.3977ZM16.618 21.3977L18.5297 20.81V20.81L16.618 21.3977ZM16.4672 20.9071L14.5555 21.4949H14.5555L16.4672 20.9071ZM13.5184 18.14L12.9583 20.06H12.9583L13.5184 18.14ZM13.5184 16.86L14.0786 18.7799H14.0786L13.5184 16.86ZM16.4672 14.0929L14.5555 13.5051L14.5555 13.5051L16.4672 14.0929ZM5 2V0C2.23858 0 0 2.23858 0 5H2H4C4 4.44772 4.44772 4 5 4V2ZM8 2V0H5V2V4H8V2ZM11 5H13C13 2.23858 10.7614 0 8 0V2V4C8.55228 4 9 4.44772 9 5H11ZM11 8H13V5H11H9V8H11ZM8 11V13C10.7614 13 13 10.7614 13 8H11H9C9 8.55228 8.55228 9 8 9V11ZM5 11V13H8V11V9H5V11ZM2 8H0C0 10.7614 2.23858 13 5 13V11V9C4.44772 9 4 8.55228 4 8H2ZM2 5H0V8H2H4V5H2ZM16 2V0C13.2386 0 11 2.23858 11 5H13H15C15 4.44772 15.4477 4 16 4V2ZM19 2V0H16V2V4H19V2ZM22 5H24C24 2.23858 21.7614 0 19 0V2V4C19.5523 4 20 4.44772 20 5H22ZM22 8H24V5H22H20V8H22ZM19 11V13C21.7614 13 24 10.7614 24 8H22H20C20 8.55228 19.5523 9 19 9V11ZM16 11V13H19V11V9H16V11ZM13 8H11C11 10.7614 13.2386 13 16 13V11V9C15.4477 9 15 8.55228 15 8H13ZM13 5H11V8H13H15V5H13ZM18.382 13.6023L20.2937 13.0145C19.8479 11.5644 18.5171 11 17.5 11C16.4829 11 15.1521 11.5644 14.7063 13.0145L16.618 13.6023L18.5297 14.19C18.3308 14.8371 17.7585 15 17.5 15C17.2415 15 16.6692 14.8371 16.4703 14.19L18.382 13.6023ZM18.5328 14.0929L20.4445 13.5051L20.2937 13.0145L18.382 13.6023L16.4703 14.19L16.6211 14.6806L18.5328 14.0929ZM21.4816 16.86L22.0417 14.94C21.1756 14.6874 20.6275 14.1003 20.4445 13.5051L18.5328 14.0929L16.6211 14.6806C17.2423 16.7011 18.9096 18.193 20.9214 18.7799L21.4816 16.86ZM21.4816 18.14L22.0417 20.06C23.2201 19.7162 24 18.6796 24 17.5C24 16.3204 23.2201 15.2838 22.0417 14.94L21.4816 16.86L20.9214 18.7799C20.4342 18.6378 20 18.1404 20 17.5C20 16.8596 20.4342 16.3622 20.9214 16.2201L21.4816 18.14ZM18.5328 20.9071L20.4445 21.4949C20.6275 20.8997 21.1756 20.3126 22.0417 20.06L21.4816 18.14L20.9214 16.2201C18.9096 16.807 17.2423 18.2989 16.6211 20.3194L18.5328 20.9071ZM18.382 21.3977L20.2937 21.9855L20.4445 21.4949L18.5328 20.9071L16.6211 20.3194L16.4703 20.81L18.382 21.3977ZM16.618 21.3977L14.7063 21.9855C15.1521 23.4356 16.4829 24 17.5 24C18.5171 24 19.8479 23.4356 20.2937 21.9855L18.382 21.3977L16.4703 20.81C16.6692 20.1629 17.2415 20 17.5 20C17.7585 20 18.3308 20.1629 18.5297 20.81L16.618 21.3977ZM16.4672 20.9071L14.5555 21.4949L14.7063 21.9855L16.618 21.3977L18.5297 20.81L18.3789 20.3194L16.4672 20.9071ZM13.5184 18.14L12.9583 20.06C13.8244 20.3126 14.3725 20.8997 14.5555 21.4949L16.4672 20.9071L18.3789 20.3194C17.7577 18.2989 16.0904 16.807 14.0786 16.2201L13.5184 18.14ZM13.5184 16.86L12.9583 14.94C11.7799 15.2838 11 16.3204 11 17.5C11 18.6796 11.7799 19.7162 12.9583 20.06L13.5184 18.14L14.0786 16.2201C14.5658 16.3622 15 16.8596 15 17.5C15 18.1404 14.5658 18.6378 14.0786 18.7799L13.5184 16.86ZM16.4672 14.0929L14.5555 13.5051C14.3725 14.1003 13.8244 14.6874 12.9583 14.94L13.5184 16.86L14.0786 18.7799C16.0904 18.193 17.7577 16.7011 18.3789 14.6806L16.4672 14.0929ZM16.618 13.6023L14.7063 13.0145L14.5555 13.5051L16.4672 14.0929L18.3789 14.6806L18.5297 14.19L16.618 13.6023ZM5 13V11C2.23858 11 0 13.2386 0 16H2H4C4 15.4477 4.44772 15 5 15V13ZM8 13V11H5V13V15H8V13ZM11 16H13C13 13.2386 10.7614 11 8 11V13V15C8.55228 15 9 15.4477 9 16H11ZM11 19H13V16H11H9V19H11ZM8 22V24C10.7614 24 13 21.7614 13 19H11H9C9 19.5523 8.55228 20 8 20V22ZM5 22V24H8V22V20H5V22ZM2 19H0C0 21.7614 2.23858 24 5 24V22V20C4.44772 20 4 19.5523 4 19H2ZM2 16H0V19H2H4V16H2Z" fill="#959DAC" mask="url(#path-1-inside-1_708_4302)"/>
</svg>
